<svg width="1200" height="630" viewBox="0 0 1200 630" xmlns="http://www.w3.org/2000/svg"><rect x="0" y="0" width="1200" height="630" fill="#fefbfb"/><defs><clipPath id="satori_bc-id-0"><path x="105" y="39" width="1056" height="504" d="M109,39 h1048 a4,4 0 0 1 4,4 v496 a4,4 0 0 1 -4,4 h-1048 a4,4 0 0 1 -4,-4 v-496 a4,4 0 0 1 4,-4"/></clipPath></defs><g opacity="0.9"><path x="105" y="39" width="1056" height="504" fill="#ecebeb" d="M109,39 h1048 a4,4 0 0 1 4,4 v496 a4,4 0 0 1 -4,4 h-1048 a4,4 0 0 1 -4,-4 v-496 a4,4 0 0 1 4,-4"/><path width="1056" height="504" clip-path="url(#satori_bc-id-0)" fill="none" stroke="#000" stroke-width="8" d="M106.172,40.172 A4,4 0 0 1 109,39 h1048 a4,4 0 0 1 4,4 v496 a4,4 0 0 1 -4,4 h-1048 a4,4 0 0 1 -4,-4 v-496 A4,4 0 0 1 106.172,40.172"/></g><defs><clipPath id="satori_bc-id-1"><path x="72" y="63" width="1056" height="504" d="M76,63 h1048 a4,4 0 0 1 4,4 v496 a4,4 0 0 1 -4,4 h-1048 a4,4 0 0 1 -4,-4 v-496 a4,4 0 0 1 4,-4"/></clipPath></defs><path x="72" y="63" width="1056" height="504" fill="#fefbfb" d="M76,63 h1048 a4,4 0 0 1 4,4 v496 a4,4 0 0 1 -4,4 h-1048 a4,4 0 0 1 -4,-4 v-496 a4,4 0 0 1 4,-4"/><path width="1056" height="504" clip-path="url(#satori_bc-id-1)" fill="none" stroke="#000" stroke-width="8" d="M73.172,64.172 A4,4 0 0 1 76,63 h1048 a4,4 0 0 1 4,4 v496 a4,4 0 0 1 -4,4 h-1048 a4,4 0 0 1 -4,-4 v-496 A4,4 0 0 1 73.172,64.172"/><clipPath id="satori_cp-id-1-0-0"><rect x="128" y="103" width="346" height="94"/></clipPath><mask id="satori_om-id-1-0-0"><rect x="128" y="103" width="346" height="94" fill="#fff"/></mask><path fill="black" d="M166.2 183.0L152.5 183.0Q146.7 183.0 143.9 179.9Q141.1 176.9 141.1 172.2L141.1 172.2L141.1 154.1L131.0 154.1L131.0 145.8L137.6 145.8Q140.0 145.8 141.0 144.9Q142.0 143.9 142.0 141.4L142.0 141.4L142.0 132.7L151.8 132.7L151.8 145.8L166.2 145.8L166.2 154.1L151.8 154.1L151.8 174.7L166.2 174.7L166.2 183.0ZM193.8 183.8L193.8 183.8Q184.4 183.8 179.6 178.6Q174.8 173.4 174.8 164.5L174.8 164.5Q174.8 160.0 176.1 156.3Q177.3 152.7 179.7 150.2Q182 147.6 185.3 146.3Q188.7 144.9 192.9 144.9L192.9 144.9Q197.0 144.9 200.4 146.3Q203.7 147.6 206.0 150.0Q208.3 152.5 209.5 156.0Q210.8 159.5 210.8 163.8L210.8 163.8L210.8 167.0L185.4 167.0L185.4 167.6Q185.4 171.2 187.6 173.4Q189.8 175.6 194.2 175.6L194.2 175.6Q197.5 175.6 199.9 174.3Q202.2 173.1 204.0 171.0L204.0 171.0L209.7 177.3Q207.6 179.9 203.7 181.9Q199.8 183.8 193.8 183.8ZM192.9 152.6L192.9 152.6Q189.5 152.6 187.4 154.7Q185.4 156.8 185.4 160.4L185.4 160.4L185.4 161.0L200.4 161.0L200.4 160.4Q200.4 156.7 198.4 154.7Q196.4 152.6 192.9 152.6ZM225.1 183.0L216.6 183.0L216.6 145.8L225.1 145.8L225.1 151.3L225.6 151.3Q226.5 148.7 228.1 146.8Q229.7 144.9 232.7 144.9L232.7 144.9Q238.1 144.9 239.3 151.3L239.3 151.3L239.7 151.3Q240.2 150.0 240.8 148.8Q241.5 147.7 242.4 146.8Q243.3 145.9 244.6 145.4Q245.9 144.9 247.7 144.9L247.7 144.9Q255.4 144.9 255.4 156.4L255.4 156.4L255.4 183.0L246.9 183.0L246.9 157.5Q246.9 154.9 246.0 153.8Q245.1 152.8 243.6 152.8L243.6 152.8Q242.3 152.8 241.3 153.7Q240.3 154.6 240.3 156.5L240.3 156.5L240.3 183.0L231.7 183.0L231.7 157.5Q231.7 154.9 230.9 153.8Q230.0 152.8 228.6 152.8L228.6 152.8Q227.1 152.8 226.1 153.7Q225.1 154.6 225.1 156.5L225.1 156.5L225.1 183.0ZM261.8 197.4L261.8 145.8L272.5 145.8L272.5 152.6L273.0 152.6Q274.4 149.3 277.0 147.1Q279.6 144.9 284.0 144.9L284.0 144.9Q287.1 144.9 289.7 146.1Q292.2 147.2 294.1 149.6Q295.9 152.0 296.9 155.7Q298.0 159.3 298.0 164.4L298.0 164.4Q298.0 169.4 296.9 173.1Q295.9 176.8 294.1 179.1Q292.2 181.5 289.7 182.7Q287.1 183.8 284.0 183.8L284.0 183.8Q279.6 183.8 277.0 181.7Q274.4 179.6 273.0 176.2L273.0 176.2L272.5 176.2L272.5 197.4L261.8 197.4ZM279.4 175.5L279.4 175.5Q283.0 175.5 285.0 173.3Q286.9 171.1 286.9 167.3L286.9 167.3L286.9 161.5Q286.9 157.6 285.0 155.4Q283.0 153.2 279.4 153.2L279.4 153.2Q276.6 153.2 274.6 154.6Q272.5 156.0 272.5 158.9L272.5 158.9L272.5 169.8Q272.5 172.8 274.6 174.2Q276.6 175.5 279.4 175.5ZM305.7 183.0L305.7 174.7L317.1 174.7L317.1 138.0L305.7 138.0L305.7 129.7L327.7 129.7L327.7 174.7L339.1 174.7L339.1 183.0L305.7 183.0ZM385.2 183.0L379.1 183.0Q375.8 183.0 373.7 181.3Q371.7 179.6 371.4 176.4L371.4 176.4L371.0 176.4Q370.0 180.1 367.0 181.9Q364.0 183.8 359.7 183.8L359.7 183.8Q354.3 183.8 351.0 180.9Q347.7 178.0 347.7 172.7L347.7 172.7Q347.7 166.9 352.0 164.1Q356.2 161.3 364.4 161.3L364.4 161.3L370.4 161.3L370.4 159.4Q370.4 156.1 368.9 154.4Q367.3 152.7 363.7 152.7L363.7 152.7Q360.3 152.7 358.2 154.0Q356.1 155.3 354.6 157.4L354.6 157.4L348.8 152.2Q350.6 149.0 354.6 147.0Q358.6 144.9 364.9 144.9L364.9 144.9Q372.5 144.9 376.8 148.4Q381.1 151.9 381.1 159.0L381.1 159.0L381.1 175.2L385.2 175.2L385.2 183.0ZM363.7 176.8L363.7 176.8Q366.5 176.8 368.5 175.5Q370.4 174.1 370.4 171.5L370.4 171.5L370.4 167.0L364.7 167.0Q358.2 167.0 358.2 171.4L358.2 171.4L358.2 172.9Q358.2 174.8 359.7 175.8Q361.2 176.8 363.7 176.8ZM425.4 183.0L411.7 183.0Q405.9 183.0 403.1 179.9Q400.3 176.9 400.3 172.2L400.3 172.2L400.3 154.1L390.2 154.1L390.2 145.8L396.8 145.8Q399.2 145.8 400.2 144.9Q401.2 143.9 401.2 141.4L401.2 141.4L401.2 132.7L411.0 132.7L411.0 145.8L425.4 145.8L425.4 154.1L411.0 154.1L411.0 174.7L425.4 174.7L425.4 183.0ZM453.0 183.8L453.0 183.8Q443.6 183.8 438.8 178.6Q434.0 173.4 434.0 164.5L434.0 164.5Q434.0 160.0 435.3 156.3Q436.5 152.7 438.9 150.2Q441.2 147.6 444.5 146.3Q447.9 144.9 452.1 144.9L452.1 144.9Q456.2 144.9 459.6 146.3Q462.9 147.6 465.2 150.0Q467.5 152.5 468.7 156.0Q470.0 159.5 470.0 163.8L470.0 163.8L470.0 167.0L444.6 167.0L444.6 167.6Q444.6 171.2 446.8 173.4Q449.0 175.6 453.4 175.6L453.4 175.6Q456.7 175.6 459.1 174.3Q461.4 173.1 463.2 171.0L463.2 171.0L468.9 177.3Q466.8 179.9 462.9 181.9Q459.0 183.8 453.0 183.8ZM452.1 152.6L452.1 152.6Q448.7 152.6 446.6 154.7Q444.6 156.8 444.6 160.4L444.6 160.4L444.6 161.0L459.6 161.0L459.6 160.4Q459.6 156.7 457.6 154.7Q455.6 152.6 452.1 152.6Z " clip-path="url(#satori_cp-id-1-0-0)" mask="url(#satori_om-id-1-0-0)"/><path fill="black" d="M130.7 520.3L130.7 499.6L132.9 499.6L132.9 508.2L133.0 508.2Q134.4 505.5 137.5 505.5L137.5 505.5Q140.1 505.5 141.6 507.5Q143.1 509.5 143.1 513.0L143.1 513.0Q143.1 516.6 141.6 518.6Q140.1 520.6 137.5 520.6L137.5 520.6Q134.4 520.6 133.0 517.9L133.0 517.9L132.9 517.9L132.9 520.3L130.7 520.3ZM136.6 518.6L136.6 518.6Q138.6 518.6 139.6 517.4Q140.7 516.2 140.7 514.3L140.7 514.3L140.7 511.8Q140.7 509.9 139.6 508.7Q138.6 507.5 136.6 507.5L136.6 507.5Q135.8 507.5 135.2 507.7Q134.5 507.9 134.0 508.2Q133.5 508.6 133.2 509.2Q132.9 509.7 132.9 510.4L132.9 510.4L132.9 515.7Q132.9 516.4 133.2 516.9Q133.5 517.5 134.0 517.8Q134.5 518.2 135.2 518.4Q135.8 518.6 136.6 518.6ZM155.4 511.9L157.9 505.8L160.1 505.8L152.9 523.4Q152.7 524.1 152.4 524.5Q152.1 525.0 151.7 525.3Q151.2 525.6 150.7 525.7Q150.1 525.9 149.3 525.9L149.3 525.9L147.1 525.9L147.1 524.0L150.5 524.0L152.1 520.0L146.3 505.8L148.6 505.8L151.0 511.9L153.2 517.4L153.3 517.4L155.4 511.9Z "/><clipPath id="satori_cp-id-1-0-1-0-2"><rect x="178" y="489" width="151" height="36"/></clipPath><mask id="satori_om-id-1-0-1-0-2"><rect x="178" y="489" width="151" height="36" fill="#fff"/></mask><path fill="black" d="M186.1 520.4L186.1 520.4Q183.6 520.4 181.8 519.6Q180.0 518.8 178.9 517.4L178.9 517.4L181.3 514.7Q182.4 515.9 183.6 516.5Q184.9 517.0 186.2 517.0L186.2 517.0Q187.7 517.0 188.5 516.3Q189.3 515.7 189.3 514.4L189.3 514.4Q189.3 513.4 188.7 512.8Q188.1 512.3 186.7 512.1L186.7 512.1L184.6 511.7Q182.0 511.3 180.8 509.8Q179.7 508.3 179.7 506.1L179.7 506.1Q179.7 503.3 181.5 501.8Q183.3 500.2 186.7 500.2L186.7 500.2Q188.9 500.2 190.6 500.9Q192.3 501.6 193.3 502.8L193.3 502.8L191.0 505.5Q190.2 504.6 189.1 504.1Q188.1 503.6 186.7 503.6L186.7 503.6Q183.9 503.6 183.9 506.0L183.9 506.0Q183.9 507.0 184.5 507.5Q185.1 508.0 186.6 508.2L186.6 508.2L188.6 508.6Q191.0 509.0 192.3 510.4Q193.6 511.7 193.6 514.1L193.6 514.1Q193.6 515.4 193.1 516.6Q192.6 517.8 191.7 518.6Q190.7 519.5 189.3 520.0Q187.9 520.4 186.1 520.4ZM210.8 520.1L208.4 520.1Q207.1 520.1 206.4 519.4Q205.6 518.8 205.4 517.5L205.4 517.5L205.3 517.5Q204.9 519.0 203.7 519.7Q202.6 520.4 200.9 520.4L200.9 520.4Q198.8 520.4 197.5 519.3Q196.3 518.2 196.3 516.1L196.3 516.1Q196.3 513.8 197.9 512.8Q199.6 511.7 202.8 511.7L202.8 511.7L205.1 511.7L205.1 510.9Q205.1 509.6 204.5 509.0Q203.9 508.3 202.4 508.3L202.4 508.3Q201.1 508.3 200.3 508.8Q199.5 509.3 198.9 510.2L198.9 510.2L196.6 508.1Q197.4 506.9 198.9 506.1Q200.5 505.3 202.9 505.3L202.9 505.3Q205.9 505.3 207.6 506.7Q209.2 508.0 209.2 510.8L209.2 510.8L209.2 517.1L210.8 517.1L210.8 520.1ZM202.5 517.7L202.5 517.7Q203.6 517.7 204.3 517.2Q205.1 516.6 205.1 515.6L205.1 515.6L205.1 513.9L202.9 513.9Q200.3 513.9 200.3 515.6L200.3 515.6L200.3 516.2Q200.3 516.9 200.9 517.3Q201.5 517.7 202.5 517.7ZM226.5 520.1L221.1 520.1Q218.9 520.1 217.8 518.9Q216.7 517.7 216.7 515.9L216.7 515.9L216.7 508.9L212.8 508.9L212.8 505.6L215.3 505.6Q216.2 505.6 216.6 505.3Q217.0 504.9 217.0 503.9L217.0 503.9L217.0 500.5L220.8 500.5L220.8 505.6L226.5 505.6L226.5 508.9L220.8 508.9L220.8 516.9L226.5 516.9L226.5 520.1Z M255.3 520.1L250.8 507.1L250.5 507.1L250.5 520.1L246.9 520.1L246.9 500.5L251.9 500.5L256.4 513.5L256.7 513.5L256.7 500.5L260.3 500.5L260.3 520.1L255.3 520.1ZM278.0 520.1L275.6 520.1Q274.3 520.1 273.6 519.4Q272.8 518.8 272.6 517.5L272.6 517.5L272.5 517.5Q272.1 519.0 270.9 519.7Q269.8 520.4 268.1 520.4L268.1 520.4Q266.0 520.4 264.7 519.3Q263.5 518.2 263.5 516.1L263.5 516.1Q263.5 513.8 265.1 512.8Q266.8 511.7 270.0 511.7L270.0 511.7L272.3 511.7L272.3 510.9Q272.3 509.6 271.7 509.0Q271.1 508.3 269.6 508.3L269.6 508.3Q268.3 508.3 267.5 508.8Q266.7 509.3 266.1 510.2L266.1 510.2L263.8 508.1Q264.6 506.9 266.1 506.1Q267.7 505.3 270.1 505.3L270.1 505.3Q273.1 505.3 274.8 506.7Q276.4 508.0 276.4 510.8L276.4 510.8L276.4 517.1L278.0 517.1L278.0 520.1ZM269.7 517.7L269.7 517.7Q270.8 517.7 271.5 517.2Q272.3 516.6 272.3 515.6L272.3 515.6L272.3 513.9L270.1 513.9Q267.5 513.9 267.5 515.6L267.5 515.6L267.5 516.2Q267.5 516.9 268.1 517.3Q268.7 517.7 269.7 517.7ZM288.1 503.8L288.1 503.8Q286.7 503.8 286.2 503.2Q285.6 502.6 285.6 501.8L285.6 501.8L285.6 501.0Q285.6 500.2 286.2 499.6Q286.7 499.1 288.1 499.1L288.1 499.1Q289.5 499.1 290.0 499.6Q290.6 500.2 290.6 501.0L290.6 501.0L290.6 501.8Q290.6 502.6 290.0 503.2Q289.5 503.8 288.1 503.8ZM281.4 520.1L281.4 516.9L286.0 516.9L286.0 508.9L281.4 508.9L281.4 505.6L290.2 505.6L290.2 516.9L294.4 516.9L294.4 520.1L281.4 520.1ZM301.6 520.1L297.4 520.1L297.4 505.6L301.6 505.6L301.6 508.3L301.7 508.3Q302.0 507.7 302.3 507.1Q302.7 506.6 303.2 506.2Q303.7 505.8 304.4 505.5Q305.1 505.3 306.0 505.3L306.0 505.3Q307.0 505.3 307.9 505.7Q308.8 506.0 309.4 506.7Q310.0 507.4 310.3 508.4Q310.7 509.4 310.7 510.7L310.7 510.7L310.7 520.1L306.5 520.1L306.5 511.3Q306.5 508.5 304.1 508.5L304.1 508.5Q303.6 508.5 303.2 508.6Q302.7 508.8 302.3 509.0Q302.0 509.3 301.8 509.7Q301.6 510.1 301.6 510.6L301.6 510.6L301.6 520.1ZM328.7 521.5L328.7 521.5Q328.7 523.8 326.8 524.9Q324.9 526.0 320.7 526.0L320.7 526.0Q318.6 526.0 317.3 525.8Q316.0 525.6 315.2 525.1Q314.4 524.7 314.0 524.0Q313.7 523.4 313.7 522.7L313.7 522.7Q313.7 521.5 314.4 520.8Q315.2 520.2 316.5 519.9L316.5 519.9L316.5 519.7Q315.6 519.4 315.0 518.9Q314.5 518.4 314.5 517.4L314.5 517.4Q314.5 516.4 315.2 515.9Q315.9 515.4 317.1 515.1L317.1 515.1L317.1 514.9Q315.8 514.3 315.1 513.2Q314.4 512.1 314.4 510.5L314.4 510.5Q314.4 509.2 314.8 508.2Q315.3 507.3 316.1 506.6Q316.9 506.0 318.1 505.6Q319.2 505.3 320.6 505.3L320.6 505.3Q322.0 505.3 323.2 505.6L323.2 505.6L323.2 504.8Q323.2 504.0 323.8 503.4Q324.4 502.9 325.4 502.9L325.4 502.9L327.9 502.9L327.9 505.9L324.5 505.9L324.5 506.1Q325.6 506.8 326.3 507.8Q327.0 508.9 327.0 510.5L327.0 510.5Q327.0 511.7 326.5 512.7Q326.1 513.6 325.2 514.3Q324.4 514.9 323.2 515.3Q322.1 515.6 320.6 515.6L320.6 515.6Q320.0 515.6 319.4 515.5Q318.8 515.5 318.3 515.3L318.3 515.3Q318.0 515.5 317.8 515.8Q317.6 516.0 317.6 516.4L317.6 516.4Q317.6 516.7 317.7 516.9Q317.9 517.1 318.2 517.2Q318.5 517.3 318.9 517.3Q319.3 517.4 319.7 517.4L319.7 517.4L323.0 517.4Q324.5 517.4 325.6 517.7Q326.7 518.0 327.4 518.6Q328.1 519.1 328.4 519.9Q328.7 520.6 328.7 521.5ZM324.8 521.9L324.8 521.9Q324.8 521.3 324.4 521.0Q323.9 520.7 322.6 520.7L322.6 520.7L317.7 520.7Q317.1 521.1 317.1 521.8L317.1 521.8Q317.1 522.5 317.7 522.9Q318.3 523.4 319.7 523.4L319.7 523.4L322.1 523.4Q323.5 523.4 324.2 523.0Q324.8 522.6 324.8 521.9ZM320.6 513.0L320.6 513.0Q321.9 513.0 322.5 512.4Q323.0 511.7 323.0 510.8L323.0 510.8L323.0 510.1Q323.0 509.2 322.5 508.6Q321.9 507.9 320.6 507.9L320.6 507.9Q319.4 507.9 318.8 508.6Q318.3 509.2 318.3 510.1L318.3 510.1L318.3 510.8Q318.3 511.7 318.8 512.4Q319.4 513.0 320.6 513.0Z " clip-path="url(#satori_cp-id-1-0-1-0-2)" mask="url(#satori_om-id-1-0-1-0-2)"/><clipPath id="satori_cp-id-1-0-1-1"><rect x="1004" y="489" width="68" height="36"/></clipPath><mask id="satori_om-id-1-0-1-1"><rect x="1004" y="489" width="68" height="36" fill="#fff"/></mask><path fill="black" d="M1006.2 520.1L1006.2 500.5L1013.0 500.5Q1015.9 500.5 1017.4 501.9Q1019.0 503.3 1019.0 505.8L1019.0 505.8Q1019.0 507.4 1018.1 508.4Q1017.3 509.4 1015.8 509.9L1015.8 509.9L1015.8 510.0Q1017.6 510.5 1018.6 511.6Q1019.6 512.7 1019.6 514.7L1019.6 514.7Q1019.6 517.2 1018.0 518.6Q1016.5 520.1 1013.7 520.1L1013.7 520.1L1006.2 520.1ZM1010.2 517.2L1012.4 517.2Q1013.9 517.2 1014.6 516.6Q1015.3 516.1 1015.3 514.8L1015.3 514.8L1015.3 514.0Q1015.3 512.6 1014.6 512.1Q1013.9 511.6 1012.4 511.6L1012.4 511.6L1010.2 511.6L1010.2 517.2ZM1010.2 508.8L1011.8 508.8Q1013.3 508.8 1014.0 508.3Q1014.7 507.9 1014.7 506.6L1014.7 506.6L1014.7 505.7Q1014.7 504.4 1014.0 504.0Q1013.3 503.5 1011.8 503.5L1011.8 503.5L1010.2 503.5L1010.2 508.8ZM1022.7 520.1L1022.7 516.9L1027.1 516.9L1027.1 502.6L1022.7 502.6L1022.7 499.4L1031.3 499.4L1031.3 516.9L1035.7 516.9L1035.7 520.1L1022.7 520.1ZM1046 520.4L1046 520.4Q1044.3 520.4 1043.0 519.9Q1041.6 519.4 1040.7 518.4Q1039.8 517.4 1039.3 516.0Q1038.7 514.6 1038.7 512.9L1038.7 512.9Q1038.7 511.1 1039.3 509.7Q1039.8 508.3 1040.7 507.3Q1041.6 506.3 1043.0 505.8Q1044.3 505.3 1046 505.3L1046 505.3Q1047.7 505.3 1049.0 505.8Q1050.4 506.3 1051.3 507.3Q1052.2 508.3 1052.7 509.7Q1053.3 511.1 1053.3 512.9L1053.3 512.9Q1053.3 514.6 1052.7 516.0Q1052.2 517.4 1051.3 518.4Q1050.4 519.4 1049.0 519.9Q1047.7 520.4 1046 520.4ZM1046 517.3L1046 517.3Q1047.4 517.3 1048.2 516.5Q1049.0 515.6 1049.0 514.0L1049.0 514.0L1049.0 511.7Q1049.0 510.1 1048.2 509.3Q1047.4 508.4 1046 508.4L1046 508.4Q1044.6 508.4 1043.8 509.3Q1043.0 510.1 1043.0 511.7L1043.0 511.7L1043.0 514.0Q1043.0 515.6 1043.8 516.5Q1044.6 517.3 1046 517.3ZM1070.7 521.5L1070.7 521.5Q1070.7 523.8 1068.8 524.9Q1066.9 526.0 1062.7 526.0L1062.7 526.0Q1060.6 526.0 1059.3 525.8Q1058.0 525.6 1057.2 525.1Q1056.4 524.7 1056.0 524.0Q1055.7 523.4 1055.7 522.7L1055.7 522.7Q1055.7 521.5 1056.4 520.8Q1057.2 520.2 1058.5 519.9L1058.5 519.9L1058.5 519.7Q1057.6 519.4 1057.0 518.9Q1056.5 518.4 1056.5 517.4L1056.5 517.4Q1056.5 516.4 1057.2 515.9Q1057.9 515.4 1059.1 515.1L1059.1 515.1L1059.1 514.9Q1057.8 514.3 1057.1 513.2Q1056.4 512.1 1056.4 510.5L1056.4 510.5Q1056.4 509.2 1056.8 508.2Q1057.3 507.3 1058.1 506.6Q1058.9 506.0 1060.1 505.6Q1061.2 505.3 1062.6 505.3L1062.6 505.3Q1064.0 505.3 1065.2 505.6L1065.2 505.6L1065.2 504.8Q1065.2 504.0 1065.8 503.4Q1066.4 502.9 1067.4 502.9L1067.4 502.9L1069.9 502.9L1069.9 505.9L1066.5 505.9L1066.5 506.1Q1067.6 506.8 1068.3 507.8Q1069.0 508.9 1069.0 510.5L1069.0 510.5Q1069.0 511.7 1068.5 512.7Q1068.1 513.6 1067.2 514.3Q1066.4 514.9 1065.2 515.3Q1064.1 515.6 1062.6 515.6L1062.6 515.6Q1062.0 515.6 1061.4 515.5Q1060.8 515.5 1060.3 515.3L1060.3 515.3Q1060.0 515.5 1059.8 515.8Q1059.6 516.0 1059.6 516.4L1059.6 516.4Q1059.6 516.7 1059.7 516.9Q1059.9 517.1 1060.2 517.2Q1060.5 517.3 1060.9 517.3Q1061.3 517.4 1061.7 517.4L1061.7 517.4L1065.0 517.4Q1066.5 517.4 1067.6 517.7Q1068.7 518.0 1069.4 518.6Q1070.1 519.1 1070.4 519.9Q1070.7 520.6 1070.7 521.5ZM1066.8 521.9L1066.8 521.9Q1066.8 521.3 1066.4 521.0Q1065.9 520.7 1064.6 520.7L1064.6 520.7L1059.7 520.7Q1059.1 521.1 1059.1 521.8L1059.1 521.8Q1059.1 522.5 1059.7 522.9Q1060.3 523.4 1061.7 523.4L1061.7 523.4L1064.1 523.4Q1065.5 523.4 1066.2 523.0Q1066.8 522.6 1066.8 521.9ZM1062.6 513.0L1062.6 513.0Q1063.9 513.0 1064.5 512.4Q1065.0 511.7 1065.0 510.8L1065.0 510.8L1065.0 510.1Q1065.0 509.2 1064.5 508.6Q1063.9 507.9 1062.6 507.9L1062.6 507.9Q1061.4 507.9 1060.8 508.6Q1060.3 509.2 1060.3 510.1L1060.3 510.1L1060.3 510.8Q1060.3 511.7 1060.8 512.4Q1061.4 513.0 1062.6 513.0Z " clip-path="url(#satori_cp-id-1-0-1-1)" mask="url(#satori_om-id-1-0-1-1)"/></svg>